<svg width="1280" height="720" viewBox="0 0 1280 720" fill="none" xmlns="http://www.w3.org/2000/svg">
<g clip-path="url(#clip0_0_53)">
<rect width="1280" height="720" fill="white"/>
<ellipse cx="144" cy="320.5" rx="144" ry="132.5" fill="#B2C0B3" fill-opacity="0.25"/>
<circle cx="256" cy="188" r="92" fill="#B2C0B3" fill-opacity="0.25"/>
<ellipse cx="1122" cy="406" rx="82" ry="78" fill="#F3EFCC" fill-opacity="0.5"/>
<path d="M1208 337.5C1208 360.972 1188.75 380 1165 380C1141.25 380 1122 360.972 1122 337.5C1122 314.028 1141.25 295 1165 295C1188.75 295 1208 314.028 1208 337.5Z" fill="#B2C0B3" fill-opacity="0.25"/>
<path d="M834.41 467.77C831.623 467.77 829.313 466.927 827.48 465.24C825.72 463.48 824.84 461.317 824.84 458.75C824.84 456.183 825.72 454.057 827.48 452.37C829.313 450.61 831.623 449.73 834.41 449.73C837.123 449.73 839.36 450.61 841.12 452.37C842.88 454.057 843.76 456.183 843.76 458.75C843.76 461.317 842.88 463.48 841.12 465.24C839.36 466.927 837.123 467.77 834.41 467.77ZM889.195 467.77C886.408 467.77 884.098 466.927 882.265 465.24C880.505 463.48 879.625 461.317 879.625 458.75C879.625 456.183 880.505 454.057 882.265 452.37C884.098 450.61 886.408 449.73 889.195 449.73C891.908 449.73 894.145 450.61 895.905 452.37C897.665 454.057 898.545 456.183 898.545 458.75C898.545 461.317 897.665 463.48 895.905 465.24C894.145 466.927 891.908 467.77 889.195 467.77ZM943.98 467.77C941.194 467.77 938.884 466.927 937.05 465.24C935.29 463.48 934.41 461.317 934.41 458.75C934.41 456.183 935.29 454.057 937.05 452.37C938.884 450.61 941.194 449.73 943.98 449.73C946.694 449.73 948.93 450.61 950.69 452.37C952.45 454.057 953.33 456.183 953.33 458.75C953.33 461.317 952.45 463.48 950.69 465.24C948.93 466.927 946.694 467.77 943.98 467.77ZM998.765 467.77C995.979 467.77 993.669 466.927 991.835 465.24C990.075 463.48 989.195 461.317 989.195 458.75C989.195 456.183 990.075 454.057 991.835 452.37C993.669 450.61 995.979 449.73 998.765 449.73C1001.48 449.73 1003.72 450.61 1005.48 452.37C1007.24 454.057 1008.12 456.183 1008.12 458.75C1008.12 461.317 1007.24 463.48 1005.48 465.24C1003.72 466.927 1001.48 467.77 998.765 467.77ZM1053.55 467.77C1050.76 467.77 1048.45 466.927 1046.62 465.24C1044.86 463.48 1043.98 461.317 1043.98 458.75C1043.98 456.183 1044.86 454.057 1046.62 452.37C1048.45 450.61 1050.76 449.73 1053.55 449.73C1056.26 449.73 1058.5 450.61 1060.26 452.37C1062.02 454.057 1062.9 456.183 1062.9 458.75C1062.9 461.317 1062.02 463.48 1060.26 465.24C1058.5 466.927 1056.26 467.77 1053.55 467.77ZM1108.34 467.77C1105.55 467.77 1103.24 466.927 1101.41 465.24C1099.65 463.48 1098.77 461.317 1098.77 458.75C1098.77 456.183 1099.65 454.057 1101.41 452.37C1103.24 450.61 1105.55 449.73 1108.34 449.73C1111.05 449.73 1113.29 450.61 1115.05 452.37C1116.81 454.057 1117.69 456.183 1117.69 458.75C1117.69 461.317 1116.81 463.48 1115.05 465.24C1113.29 466.927 1111.05 467.77 1108.34 467.77Z" fill="#FF9999"/>
</g>
<defs>
<clipPath id="clip0_0_53">
<rect width="1280" height="720" fill="white"/>
</clipPath>
</defs>
</svg>
