<svg width="235" height="266" viewBox="0 0 235 266" fill="none" xmlns="http://www.w3.org/2000/svg">
<ellipse cx="116.5" cy="135.5" rx="104.5" ry="102.5" fill="#406343"/>
<path d="M58 105C58 101.022 59.5672 97.2064 62.3568 94.3934C65.1464 91.5804 68.9299 90 72.875 90H162.125C166.07 90 169.854 91.5804 172.643 94.3934C175.433 97.2064 177 101.022 177 105V165C177 168.978 175.433 172.794 172.643 175.607C169.854 178.42 166.07 180 162.125 180H72.875C68.9299 180 65.1464 178.42 62.3568 175.607C59.5672 172.794 58 168.978 58 165V105ZM72.875 97.5C70.9025 97.5 69.0107 98.2902 67.6159 99.6967C66.2211 101.103 65.4375 103.011 65.4375 105V106.628L117.5 138.127L169.562 106.628V105C169.562 103.011 168.779 101.103 167.384 99.6967C165.989 98.2902 164.098 97.5 162.125 97.5H72.875ZM169.562 115.372L134.547 136.56L169.562 158.287V115.372ZM169.31 166.942L127.362 140.91L117.5 146.873L107.638 140.91L65.6904 166.935C66.113 168.531 67.0464 169.942 68.3455 170.948C69.6446 171.954 71.2369 172.5 72.875 172.5H162.125C163.762 172.5 165.354 171.956 166.653 170.951C167.952 169.946 168.886 168.537 169.31 166.942V166.942ZM65.4375 158.287L100.453 136.56L65.4375 115.372V158.287Z" fill="white"/>
</svg>
